<svg xmlns="http://www.w3.org/2000/svg" version="1.1" x="0" y="0" width="100" height="100" viewBox="0 0 100 100" enable-background="new 0 0 100 100" xml:space="preserve"><path fill="#010101" d="M0 50v-2.3c20.9-0.4 38.1-2.7 52.2-7.1 1.6 3.2 3 6.3 4.4 9.6 -1.3 0.3-2.5 0.7-3.8 1.1 -15.7 5.6-29.1 16.5-39.6 32.6C5 75 0 63.1 0 50M1 40C4.2 24.3 14.8 11.2 29.1 4.6c8 9.7 14.5 19.5 19.7 29.2C35.7 37.6 20 39.7 1 40M50 100c-11.7 0-22.6-4.1-31-10.7 11.7-18.4 25.9-27.9 40.4-32 5.3 14.2 8.4 27.3 10.3 38.7C63.5 98.6 56.9 100 50 100M37.5 1.6C41.6 0.6 45.7 0 50 0c12.8 0 24.6 4.9 33.4 12.8 -6.7 7.8-15.4 13.8-26.4 18.2C51.8 21.3 45.4 11.3 37.5 1.6M65 48.2c-1.4-3.5-3-6.9-4.6-10.5 11.6-4.6 20.9-11.1 28.3-19.4 7 8.5 11.2 19.5 11.3 31.4C87.6 47 75.9 46.4 65 48.2M77.5 91.7c-2-10.7-4.8-23-9.7-36.1 11-1.6 21.9-0.5 31.6 2C97.3 71.8 89.1 84 77.5 91.7"/></svg>