<svg xmlns="http://www.w3.org/2000/svg" version="1.1" x="0" y="0" width="100" height="100" viewBox="0 0 100 100" enable-background="new 0 0 100 100" xml:space="preserve"><path fill="#010101" d="M100 50c0 27.7-22.3 50-50 50 -27.7 0-50-22.3-50-50C0 22.3 22.3 0 50 0 77.7 0 100 22.3 100 50M87.5 31.7c-2.5 1.1-5.3 1.9-8.2 2.2 3-1.8 5.1-4.5 6.1-7.9 -2.8 1.7-5.7 2.8-8.9 3.5C74 26.8 70.3 25 66.2 25 58.4 25 52.1 31.3 52.1 39.3c0 1 0.1 2.2 0.3 3.2 -11.8-0.6-22.4-6.2-29.4-14.9 -1.2 2.2-1.9 4.6-1.9 7.2 0 5 2.4 9.3 6.3 11.8 -2.3 0-4.5-0.7-6.4-1.8v0.1c0 6.9 4.9 12.6 11.4 14 -1.2 0.3-2.4 0.4-3.7 0.4 -0.9 0-1.9-0.1-2.7-0.2 1.8 5.7 7.1 9.5 13.2 9.6 -4.9 3.8-10.9 6.5-17.6 6.5 -1.1 0-2.3-0.1-3.3-0.2 6.3 4.1 13.8 6.3 21.7 6.3 26.2 0 40.4-21.6 40.4-40.4v-1.9C83.2 37.1 85.5 34.5 87.5 31.7"/></svg>