<svg xmlns="http://www.w3.org/2000/svg" version="1.1" x="0" y="0" width="100" height="100" viewBox="0 0 100 100" enable-background="new 0 0 100 100" xml:space="preserve"><path fill="#010101" d="M50 0C22.4 0 0 22.4 0 50c0 27.6 22.4 50 50 50 27.6 0 50-22.4 50-50C100 22.4 77.6 0 50 0M81.8 49.1C81.6 49.7 81.1 50 80.5 50H74v29.1C74 79.8 73.3 80 72.6 80H59.3C58.6 80 58 79.8 58 79.1V57H42v22.1C42 79.8 41.4 80 40.7 80H27.4C26.7 80 26 79.8 26 79.1V50h-6.5c-0.5 0-1-0.3-1.3-0.9 -0.1-0.5-0.1-1.1 0.3-1.5l30.5-30.5c0.5-0.5 1.4-0.5 1.90l30.5 30.6C81.9 48.1 81.9 48.6 81.8 49.1"/></svg>